<svg width="970" height="818" viewBox="0 0 970 818" fill="none" xmlns="http://www.w3.org/2000/svg">
<path d="M49.5 403.5H75.5H101.5L116.5 413.5H137.5H158H173L184 403.5V392.5L204.5 384.5L222.5 392.5L229.5 384.5L244.5 392.5L255.5 384.5V376L266.5 384.5V376L280.5 364H295.5L305 357V343V332L316 324H328.5L339.5 316H351.5L367 307.5H382L389 316L401 307.5L408 295L401 284L408 272H420.5H433L442.5 284L452 295H466V284L457.5 278.5L442.5 272V261H457.5L470 255.5L479.5 261H497.5L510 255.5V244.5H525H538.5V233.5H552.5V221H538.5V211.5H525L518 199L510 192V174L525 181L538.5 174L530.5 167.5H545.5H560.5H580H596.5L614.5 156.5L635 145.5L647.5 135.5L666.5 145.5L679 135.5V123.5V111V98.5L692.5 79.5H702V91.5L713 98.5V111L728.5 98.5L735 86L745 91.5L754.5 98.5H764V91.5L771 79.5L764 68.5L771 58.5V46.5H787.5H800L811 35.5L800 25.5V14.5L816.5 20V14.5L831.5 1L844 14.5L852 25.5L863 35.5H875.5L893.5 46.5L905.5 35.5H921L932 25.5V14.5L945.5 1L952.5 14.5L962 1H969L952.5 25.5L932 58.5L905.5 86L893.5 98.5L875.5 111L852 123.5L831.5 145.5L816.5 156.5L800 181L787.5 192L754.5 211.5L728.5 221L702 244.5L679 261L666.5 284H679V295V307.5V324L647.5 343L614.5 357L591 351.5H567.5L552.5 364L538.5 392.5L525 413.5V425.5L497.5 436.5V425.5V413.5H479.5H457.5L442.5 425.5L433 446.5L420.5 471L408 493V518V534.5V553.5L420.5 563V593.5V614L408 634.5L420.5 651L433 673V692.5V704.5V722.5L420.5 692.5H408V704.5L401 715.5L389 731L373.5 735V747.5L361.5 743H351.5L339.5 735H328.5V743L316 755.5H305L295.5 768H280.5H266.5H255.5H244.5H229.5V786L222.5 808L213 817.5H191L184 808L188 792.5L191 783.078L204.5 786L213 768L222.5 747.5L213 735L204.5 731V704.5H173V692.5H158L167.5 677L158 666H147V651L133 659.5L123.5 673L116.5 677L101.5 684H89V673L75.5 666L59 659.5L49.5 666V677H30V659.5V641.5L19 623.5L35.5 619.5V634.5L59 641.5L75.5 651V641.5L89 623.5V607H75.5V619.5L66 607H49.5V619.5L30 614L13.5 601.5L21.75 594M30 586.5L21.75 594M21.75 594L1 571.5L13.5 553.5V534.5L8 524.5V509.5L30 518H35.5L49.5 509.5V493V480.5L42.5 471L30 458.5L35.5 446.5H49.5L42.5 436.5V425.5L35.5 413.5L42.5 403.5" stroke="black" stroke-width="3"/>
</svg>
